# xmcd
#
# Track frame offsets: 
#        150
#        18244
#        39148
#        61129
#        79691
#        98113
#        116640
#        137152
#        155400
#        172033
#        184610
#        203070
#
# Disc length: 2953 seconds
#
# Revision: 0
# Processed by: cddbd v1.5.2PL0 Copyright (c) Steve Scherf et al.
# Submitted via: ExactAudioCopy v0.99pb5
#
DISCID=910b870c
DTITLE=Maarit - Collections
DYEAR=2009
DGENRE=Pop
TTITLE0=Sydämeni tyhjää lyö
TTITLE1=Julkiset asiat
TTITLE2=Tuuli ja taivas
TTITLE3=Yön oudot linnut
TTITLE4=Aloin unohtaa
TTITLE5=Asema-aukion öinen blues
TTITLE6=Tuskan tanssi
TTITLE7=Kastuneet kengät
TTITLE8=Kaipuun ikkuna
TTITLE9=Ilta lähiössä
TTITLE10=Matkalaukku
TTITLE11=Arjen juhlaa
EXTD=
EXTT0=
EXTT1=
EXTT2=
EXTT3=
EXTT4=
EXTT5=
EXTT6=
EXTT7=
EXTT8=
EXTT9=
EXTT10=
EXTT11=
PLAYORDER=
